<svg xmlns="http://www.w3.org/2000/svg" xmlns:xlink="http://www.w3.org/1999/xlink" contentStyleType="text/css" data-diagram-type="DESCRIPTION" height="1801.875px" preserveAspectRatio="none" style="width:575px;height:1801px;background:#FFFFFF;" version="1.1" viewBox="0 0 575 1801" width="575.625px" zoomAndPan="magnify"><?plantuml 1.2026.6?><defs/><g><!--cluster System--><g class="cluster" data-qualified-name="System" data-source-line="15" id="ent0001"><rect fill="none" height="1370.625" rx="4.6875" ry="4.6875" style="stroke:#181818;stroke-width:1.875;" width="384.375" x="165" y="405.9375"/><text fill="#000000" font-family="'Malgun Gothic'" font-size="28.125" font-weight="700" lengthAdjust="spacing" textLength="217.0349" x="248.67" y="440.2982">AI &#49828;&#47560;&#53944; &#45257;&#51109;&#44256;</text></g><!--entity UC_AUTH--><g class="entity" data-qualified-name="System.UC_AUTH" data-source-line="16" id="ent0002"><ellipse cx="357.4012" cy="511.3552" fill="#EEF3FB" rx="143.6512" ry="33.2302" style="stroke:#526AA5;stroke-width:0.9375;"/><text fill="#172033" font-family="'Malgun Gothic'" font-size="28.125" lengthAdjust="spacing" textLength="203.0273" x="255.8875" y="523.497">&#54924;&#50896;&#44032;&#51077;&#183;&#47196;&#44536;&#51064;</text></g><!--entity UC_FRIDGE--><g class="entity" data-qualified-name="System.UC_FRIDGE" data-source-line="17" id="ent0003"><ellipse cx="357.3268" cy="644.2779" fill="#EEF3FB" rx="147.3268" ry="33.9654" style="stroke:#526AA5;stroke-width:0.9375;"/><text fill="#172033" font-family="'Malgun Gothic'" font-size="28.125" lengthAdjust="spacing" textLength="212.915" x="250.8693" y="656.4196">&#45257;&#51109;&#44256; &#46321;&#47197;&#183;&#49440;&#53469;</text></g><!--entity UC_AUTO--><g class="entity" data-qualified-name="System.UC_AUTO" data-source-line="18" id="ent0004"><ellipse cx="356.8603" cy="1710.4971" fill="#EEF3FB" rx="148.7353" ry="34.2471" style="stroke:#526AA5;stroke-width:0.9375;"/><text fill="#172033" font-family="'Malgun Gothic'" font-size="28.125" lengthAdjust="spacing" textLength="216.6504" x="248.5351" y="1722.6388">&#49885;&#51116;&#47308; &#51088;&#46041; &#46321;&#47197;</text></g><!--entity UC_LIST--><g class="entity" data-qualified-name="System.UC_LIST" data-source-line="19" id="ent0005"><ellipse cx="356.8467" cy="775.6193" fill="#EEF3FB" rx="138.4092" ry="32.1818" style="stroke:#526AA5;stroke-width:0.9375;"/><text fill="#172033" font-family="'Malgun Gothic'" font-size="28.125" lengthAdjust="spacing" textLength="188.5254" x="262.584" y="787.7611">&#51116;&#44256; &#47785;&#47197; &#51312;&#54924;</text></g><!--entity UC_REVIEW--><g class="entity" data-qualified-name="System.UC_REVIEW" data-source-line="20" id="ent0006"><ellipse cx="357.1094" cy="948.1719" fill="#EEF3FB" rx="162.1094" ry="36.9219" style="stroke:#526AA5;stroke-width:0.9375;"/><text fill="#172033" font-family="'Malgun Gothic'" font-size="28.125" lengthAdjust="spacing" textLength="250.9277" x="231.6456" y="960.3136">&#51116;&#44256; &#49345;&#49464; &#44160;&#49688;&#183;&#49688;&#51221;</text></g><!--entity UC_RECIPE--><g class="entity" data-qualified-name="System.UC_RECIPE" data-source-line="21" id="ent0007"><ellipse cx="356.8603" cy="1084.2471" fill="#EEF3FB" rx="148.7353" ry="34.2471" style="stroke:#526AA5;stroke-width:0.9375;"/><text fill="#172033" font-family="'Malgun Gothic'" font-size="28.125" lengthAdjust="spacing" textLength="216.6504" x="248.5351" y="1096.3888">&#47112;&#49884;&#54588; &#52628;&#52380; &#51312;&#54924;</text></g><!--entity UC_DETAIL--><g class="entity" data-qualified-name="System.UC_DETAIL" data-source-line="22" id="ent0008"><ellipse cx="356.8603" cy="1258.6221" fill="#EEF3FB" rx="148.7353" ry="34.2471" style="stroke:#526AA5;stroke-width:0.9375;"/><text fill="#172033" font-family="'Malgun Gothic'" font-size="28.125" lengthAdjust="spacing" textLength="216.6504" x="248.5351" y="1270.7638">&#47112;&#49884;&#54588; &#49345;&#49464; &#54869;&#51064;</text></g><!--entity UC_CAPTURE--><g class="entity" data-qualified-name="System.UC_CAPTURE" data-source-line="23" id="ent0009"><ellipse cx="357.1094" cy="1396.2969" fill="#EEF3FB" rx="162.1094" ry="36.9219" style="stroke:#526AA5;stroke-width:0.9375;"/><text fill="#172033" font-family="'Malgun Gothic'" font-size="28.125" lengthAdjust="spacing" textLength="250.9277" x="231.6456" y="1408.4386">&#47928; &#51060;&#48292;&#53944; &#44048;&#51648;&#183;&#52524;&#50689;</text></g><!--entity UC_AI--><g class="entity" data-qualified-name="System.UC_AI" data-source-line="24" id="ent0010"><ellipse cx="356.9243" cy="1534.2599" fill="#EEF3FB" rx="158.1743" ry="36.1349" style="stroke:#526AA5;stroke-width:0.9375;"/><text fill="#172033" font-family="'Malgun Gothic'" font-size="28.125" lengthAdjust="spacing" textLength="241.04" x="236.4042" y="1546.4016">&#49885;&#51116;&#47308; &#51064;&#49885;&#183;&#50504;&#51221;&#54868;</text></g><!--entity User--><g class="entity" data-qualified-name="User" data-source-line="27" id="ent0011"><ellipse cx="357.1875" cy="241.875" fill="#F1F1F1" rx="15" ry="15" style="stroke:#181818;stroke-width:0.9375;"/><path d="M357.1875,256.875 L357.1875,307.5 M332.8125,271.875 L381.5625,271.875 M357.1875,307.5 L332.8125,335.625 M357.1875,307.5 L381.5625,335.625" fill="none" style="stroke:#181818;stroke-width:0.9375;"/><text fill="#000000" font-family="'Malgun Gothic'" font-size="28.125" lengthAdjust="spacing" textLength="84.375" x="315" y="369.0482">&#49324;&#50857;&#51088;</text></g><!--entity Pi--><g class="entity" data-qualified-name="Pi" data-source-line="28" id="ent0012"><ellipse cx="356.7632" cy="26.25" fill="#F1F1F1" rx="15" ry="15" style="stroke:#181818;stroke-width:0.9375;"/><path d="M356.7632,41.25 L356.7632,91.875 M332.3882,56.25 L381.1382,56.25 M356.7632,91.875 L332.3882,120 M356.7632,91.875 L381.1382,120" fill="none" style="stroke:#181818;stroke-width:0.9375;"/><text fill="#000000" font-family="'Malgun Gothic'" font-size="28.125" lengthAdjust="spacing" textLength="184.7763" x="264.375" y="153.4232">Raspberry Pi 5</text></g><!--link UC_AUTH to User--><g class="link" data-entity-1="ent0002" data-entity-2="ent0011" data-link-type="association" data-source-line="30" id="lnk13"><path d="M357.1875,478.125 C357.1875,444.2062 357.1875,410.2875 357.1875,376.3875" fill="none" id="UC_AUTH-User" style="stroke:#526AA5;stroke-width:1.875;"/></g><!--link UC_FRIDGE to User--><g class="link" data-entity-1="ent0003" data-entity-2="ent0011" data-link-type="association" data-source-line="31" id="lnk14"><path d="M228.8625,627.3563 C183,613.6125 138.5063,588.7313 121.875,543.75 C82.4625,437.2125 237.075,353.0062 314.9063,318.2438" fill="none" id="UC_FRIDGE-User" style="stroke:#526AA5;stroke-width:1.875;"/></g><!--link UC_LIST to User--><g class="link" data-entity-1="ent0005" data-entity-2="ent0011" data-link-type="association" data-source-line="32" id="lnk15"><path d="M233.2875,760.8938 C185.85,747.825 139.0125,723.1875 121.875,676.875 C91.5188,594.8063 91.5188,562.0687 121.875,480 C153.75,393.825 256.1063,340.6125 314.775,316.4063" fill="none" id="UC_LIST-User" style="stroke:#526AA5;stroke-width:1.875;"/></g><!--link UC_REVIEW to User--><g class="link" data-entity-1="ent0006" data-entity-2="ent0011" data-link-type="association" data-source-line="33" id="lnk16"><path d="M254.1563,919.4625 C200.9625,898.3125 142.875,863.0438 121.875,806.25 C96.7125,738.2625 96.7125,547.9875 121.875,480 C153.75,393.825 256.1063,340.6125 314.775,316.4063" fill="none" id="UC_REVIEW-User" style="stroke:#526AA5;stroke-width:1.875;"/></g><!--link UC_RECIPE to User--><g class="link" data-entity-1="ent0007" data-entity-2="ent0011" data-link-type="association" data-source-line="34" id="lnk17"><path d="M226.95,1067.4 C181.7625,1053.5438 138.2813,1028.7375 121.875,984.375 C102.4312,931.8188 102.4312,532.5563 121.875,480 C153.75,393.825 256.1063,340.6125 314.775,316.4063" fill="none" id="UC_RECIPE-User" style="stroke:#526AA5;stroke-width:1.875;"/></g><!--link UC_DETAIL to User--><g class="link" data-entity-1="ent0008" data-entity-2="ent0011" data-link-type="association" data-source-line="35" id="lnk18"><path d="M257.8688,1232.9438 C203.6438,1212.4125 143.3063,1177.2938 121.875,1119.375 C97.2187,1052.7375 97.2187,546.6375 121.875,480 C153.75,393.825 256.1063,340.6125 314.775,316.4063" fill="none" id="UC_DETAIL-User" style="stroke:#526AA5;stroke-width:1.875;"/></g><!--link UC_CAPTURE to Pi--><g class="link" data-entity-1="ent0009" data-entity-2="ent0012" data-link-type="association" data-source-line="36" id="lnk19"><path d="M221.2875,1375.7438 C178.2,1361.2313 137.6437,1336.35 121.875,1293.75 C101.2687,1238.0625 101.2687,280.6875 121.875,225 C144.1313,164.85 208.35,129.3 264.0938,109.125" fill="none" id="UC_CAPTURE-Pi" style="stroke:#526AA5;stroke-width:1.875;"/></g><!--link UC_AUTO to UC_CAPTURE--><g class="link" data-entity-1="ent0004" data-entity-2="ent0009" data-link-type="dependency" data-source-line="38" id="lnk20"><path d="M237.3938,1690.2375 C137.0813,1666.6313 16.4813,1619.9438 58.125,1535.625 C89.7187,1471.65 152.3192,1439.4737 217.5317,1420.6112" fill="none" id="UC_AUTO-to-UC_CAPTURE" style="stroke:#526AA5;stroke-width:1.875;stroke-dasharray:13.125,13.125;"/><polygon fill="#526AA5" points="226.5375,1418.0063,208.2431,1415.4904,217.5317,1420.6112,212.4109,1429.8998,226.5375,1418.0063" style="stroke:#526AA5;stroke-width:1.875;stroke-linejoin:miter;stroke-miterlimit:10;"/><text fill="#000000" font-family="'Malgun Gothic'" font-size="28.125" lengthAdjust="spacing" textLength="120.5612" x="13.125" y="1568.1107">&#171;include&#187;</text></g><!--link UC_AUTO to UC_AI--><g class="link" data-entity-1="ent0004" data-entity-2="ent0010" data-link-type="dependency" data-source-line="39" id="lnk21"><path d="M357.1875,1676.1188 C357.1875,1645.8188 357.1875,1611.4313 357.1875,1580.625" fill="none" id="UC_AUTO-to-UC_AI" style="stroke:#526AA5;stroke-width:1.875;stroke-dasharray:13.125,13.125;"/><polygon fill="#526AA5" points="357.1875,1571.25,349.6875,1588.125,357.1875,1580.625,364.6875,1588.125,357.1875,1571.25" style="stroke:#526AA5;stroke-width:1.875;stroke-linejoin:miter;stroke-miterlimit:10;"/><text fill="#000000" font-family="'Malgun Gothic'" font-size="28.125" lengthAdjust="spacing" textLength="120.5612" x="271.875" y="1636.5482">&#171;include&#187;</text></g><!--link UC_REVIEW to UC_LIST--><g class="link" data-entity-1="ent0006" data-entity-2="ent0005" data-link-type="dependency" data-source-line="40" id="lnk22"><path d="M357.1875,911.2313 C357.1875,880.3688 357.1875,846.0188 357.1875,816.5813" fill="none" id="UC_REVIEW-to-UC_LIST" style="stroke:#526AA5;stroke-width:1.875;stroke-dasharray:13.125,13.125;"/><polygon fill="#526AA5" points="357.1875,807.2063,349.6875,824.0813,357.1875,816.5813,364.6875,824.0813,357.1875,807.2063" style="stroke:#526AA5;stroke-width:1.875;stroke-linejoin:miter;stroke-miterlimit:10;"/><text fill="#000000" font-family="'Malgun Gothic'" font-size="28.125" lengthAdjust="spacing" textLength="114.9857" x="274.6875" y="872.0169">&#171;extend&#187;</text></g><!--link UC_DETAIL to UC_RECIPE--><g class="link" data-entity-1="ent0008" data-entity-2="ent0007" data-link-type="dependency" data-source-line="41" id="lnk23"><path d="M357.1875,1223.775 C357.1875,1193.5125 357.1875,1159.5375 357.1875,1129.2937" fill="none" id="UC_DETAIL-to-UC_RECIPE" style="stroke:#526AA5;stroke-width:1.875;stroke-dasharray:13.125,13.125;"/><polygon fill="#526AA5" points="357.1875,1119.9187,349.6875,1136.7937,357.1875,1129.2937,364.6875,1136.7937,357.1875,1119.9187" style="stroke:#526AA5;stroke-width:1.875;stroke-linejoin:miter;stroke-miterlimit:10;"/><text fill="#000000" font-family="'Malgun Gothic'" font-size="28.125" lengthAdjust="spacing" textLength="114.9857" x="274.6875" y="1184.6732">&#171;extend&#187;</text></g><?plantuml-src TLDTQzfW5BxFhpYuwuvQSHkZ2AcDNQ1RnO_jShmrhp4q9f94EZS6jdRWsiA4AMXdH5b7wV32kJAzs5L_Zddp7vPF5p-QkppdUSvvpdCI4USrq6HG1BwW0ISeEAS9iaIfHu9KGWegmY7A7V6AN9Quk2pA2ZnAE4-0eHOG9nyB4Wzv9AeuKE5A0eIVRGOHd4TbKKl8alOA5J64NYAHBqkm9si58HTQpqmBxp64eu5YoJA5U9pMAY86spEIU34ucLOK-TWp7DrwGjD1TLd5EQHY-401x2olnp29I6B7hiWAXvN57W2s7myBFztQZ4IeZnGrTm0XcWLoVctSrCtpAHYrpwJtO_Qx7mAaGhgYQhZeJFKTXCohI_AjCHjLIU_J_SGOT6UJAT6d3ZyRVqjdCo-2z7b3CBx-CWRw_OISzSsQxlCJANPtZmago8LEUaFZ-oMGNiFuql64WG472_JUqEd-yzOY0HcCB8C-TvzDPzPmIUs4d4rXDgwIUjioL6-JVilNf9ZNBFDcOOL-dLnqpUPV87-QPDnT6f9YucoIUK3WJZ8xhK14kqo6PlSN1CCf4FtE65_RDvYD6kIcQlcw6vBsYQ-AqybCDlLGKlhKUh4ahRgrYjbfpjDYxMkZd6QTFqHEX-JgrahLhQfOyIiff9OEiQ9K82b0r2ad1OhoxWaRpi-suKhcHrk1xRXNG3VFDR2TsWhiPhC2UylFyV_c3k1nB10FF8VjRK7AYMKEns9B7EjBNobxzbo2iu1DmUyqB74kmxFaCZpRGSu_?></g></svg>